<?xml version="1.0" encoding="UTF-8"?>
<svg version="1.1" xmlns="http://www.w3.org/2000/svg" width="193" height="222">
<path d="M0 0 C1.00869141 0.05220703 2.01738281 0.10441406 3.05664062 0.15820312 C5.51734916 0.28648651 7.97750054 0.42137085 10.4375 0.5625 C8.70918995 3.48309351 6.96062036 6.35441844 5 9.125 C4.60941406 9.68316406 4.21882813 10.24132813 3.81640625 10.81640625 C2.4375 12.5625 2.4375 12.5625 0.50390625 14.48046875 C-2.32255416 17.32830126 -4.59643793 20.51237231 -6.9765625 23.734375 C-7.76160156 24.63929687 -7.76160156 24.63929687 -8.5625 25.5625 C-9.2225 25.5625 -9.8825 25.5625 -10.5625 25.5625 C-11.2225 27.2125 -11.8825 28.8625 -12.5625 30.5625 C-13.2225 30.5625 -13.8825 30.5625 -14.5625 30.5625 C-15.0265625 31.490625 -15.0265625 31.490625 -15.5 32.4375 C-16.1875 33.8125 -16.875 35.1875 -17.5625 36.5625 C-18.2225 36.5625 -18.8825 36.5625 -19.5625 36.5625 C-19.830625 37.366875 -20.09875 38.17125 -20.375 39 C-20.766875 39.845625 -21.15875 40.69125 -21.5625 41.5625 C-23.0475 42.0575 -23.0475 42.0575 -24.5625 42.5625 C-24.8925 43.3875 -25.2225 44.2125 -25.5625 45.0625 C-25.8925 45.8875 -26.2225 46.7125 -26.5625 47.5625 C-27.5525 47.8925 -28.5425 48.2225 -29.5625 48.5625 C-31.36251613 51.1218857 -31.36251613 51.1218857 -31.5625 54.5625 C-30.4782426 56.63289195 -29.10271256 58.25049961 -27.6015625 60.04296875 C-25.07415738 63.16591186 -22.89272838 66.45783639 -20.6875 69.8125 C-20.26114258 70.45517822 -19.83478516 71.09785645 -19.39550781 71.76000977 C-17.32171097 74.88674761 -15.26113905 78.02181127 -13.2109375 81.1640625 C-12.14746094 82.78441406 -12.14746094 82.78441406 -11.0625 84.4375 C-10.4334375 85.40429688 -9.804375 86.37109375 -9.15625 87.3671875 C-7.74796122 89.66188141 -7.74796122 89.66188141 -5.5625 90.5625 C-5.2325 87.2625 -4.9025 83.9625 -4.5625 80.5625 C4.0175 80.5625 12.5975 80.5625 21.4375 80.5625 C21.4375 112.2425 21.4375 143.9225 21.4375 176.5625 C37.9375 176.5625 54.4375 176.5625 71.4375 176.5625 C72.2493274 179.80980962 72.53269671 181.49961488 72.31640625 184.671875 C72.26806641 185.42597656 72.21972656 186.18007812 72.16992188 186.95703125 C72.11384766 187.73433594 72.05777344 188.51164063 72 189.3125 C71.94779297 190.10527344 71.89558594 190.89804688 71.84179688 191.71484375 C71.71260676 193.66443997 71.57580035 195.61352886 71.4375 197.5625 C61.67606933 197.716085 51.91457325 197.86426675 42.15295506 198.0054636 C37.62072304 198.07119172 33.08853543 198.13881283 28.55639648 198.21069336 C24.18633041 198.27993485 19.8162177 198.3442911 15.44602776 198.40519524 C13.77496647 198.4293549 12.10393012 198.45530404 10.43292427 198.48303413 C8.10058622 198.52143946 5.76824229 198.55360089 3.43579102 198.58422852 C2.38922585 198.60364754 2.38922585 198.60364754 1.32151794 198.62345886 C-0.30651399 198.64158008 -1.93499284 198.60763112 -3.5625 198.5625 C-5.49983784 196.62516216 -4.75687205 192.96577444 -4.78369141 190.32055664 C-4.80095024 189.18398872 -4.80095024 189.18398872 -4.81855774 188.02445984 C-4.85538922 185.50723389 -4.88494701 182.98998244 -4.9140625 180.47265625 C-4.9371651 178.73009366 -4.9605553 176.98753487 -4.98422241 175.24497986 C-5.0327483 171.58726205 -5.07766884 167.92952175 -5.12011719 164.27172852 C-5.17491416 159.57596371 -5.23874359 154.8803732 -5.30529213 150.184762 C-5.35530129 146.58438889 -5.40045475 142.98396748 -5.44413376 139.3835125 C-5.46574536 137.65188066 -5.48889951 135.92026738 -5.5135994 134.18867683 C-5.54737922 131.77042594 -5.57461939 129.35218854 -5.60009766 126.93383789 C-5.61147263 126.21324188 -5.6228476 125.49264587 -5.63456726 124.75021362 C-5.67675563 119.79101125 -5.67675563 119.79101125 -4.5625 117.5625 C-5.63628906 117.67851562 -6.71007812 117.79453125 -7.81640625 117.9140625 C-18.94951829 118.77015412 -18.94951829 118.77015412 -22.83203125 115.86328125 C-24.64831683 113.18967352 -26.08858468 110.43929858 -27.5625 107.5625 C-29.10835935 105.12681191 -30.74638819 102.75587389 -32.375 100.375 C-33.22870672 99.09517771 -34.08024056 97.81390356 -34.9296875 96.53125 C-35.35991211 95.88285156 -35.79013672 95.23445313 -36.23339844 94.56640625 C-36.67200195 93.90511719 -37.11060547 93.24382812 -37.5625 92.5625 C-39.37357846 89.83238598 -41.18632891 87.10339217 -43 84.375 C-43.41290283 83.75149658 -43.82580566 83.12799316 -44.2512207 82.4855957 C-46.27337943 79.443798 -48.33061704 76.45461844 -50.5625 73.5625 C-55.87769094 75.89848498 -59.00515219 79.37102489 -61.5625 84.5625 C-62.53888974 90.26307478 -62.54500998 95.85570648 -62.5 101.625 C-62.51313004 103.17385799 -62.52938039 104.72269283 -62.54882812 106.27148438 C-62.59516826 110.03712385 -62.57742645 113.79463771 -62.5625 117.5625 C-71.1425 117.5625 -79.7225 117.5625 -88.5625 117.5625 C-88.5625 78.9525 -88.5625 40.3425 -88.5625 0.5625 C-79.9825 0.5625 -71.4025 0.5625 -62.5625 0.5625 C-62.5625 16.7325 -62.5625 32.9025 -62.5625 49.5625 C-61.5725 49.5625 -60.5825 49.5625 -59.5625 49.5625 C-59.30984375 48.99917969 -59.0571875 48.43585937 -58.796875 47.85546875 C-57.38596289 45.23456556 -55.72161815 43.16091778 -53.8125 40.875 C-52.6059375 39.4209375 -52.6059375 39.4209375 -51.375 37.9375 C-50.92769531 37.40125 -50.48039062 36.865 -50.01953125 36.3125 C-47.27065894 33.01090538 -44.54332984 29.6915185 -41.8125 26.375 C-40.92896851 25.30342651 -40.92896851 25.30342651 -40.02758789 24.21020508 C-35.17644182 18.32229304 -30.36038898 12.40641189 -25.56152344 6.47583008 C-20.80143285 0.59920281 -20.80143285 0.59920281 -16.72265625 -0.02734375 C-11.11634303 -0.59497324 -5.6147721 -0.32328602 0 0 Z " fill="#DFDEDC" transform="translate(106.5625,15.4375)"/>
<path d="M0 0 C3.41940364 3.0394699 5.57274991 6.38124906 7.8515625 10.29296875 C8.90133104 12.15586422 8.90133104 12.15586422 11 13 C11 12.34 11 11.68 11 11 C11.99 10.67 12.98 10.34 14 10 C14 12.31 14 14.62 14 17 C13.34 16.67 12.68 16.34 12 16 C12 15.34 12 14.68 12 14 C11.34 14 10.68 14 10 14 C9.67 14.66 9.34 15.32 9 16 C6.38472619 13.63379989 4.73559438 11.057952 3 8 C2.01 8.495 2.01 8.495 1 9 C-1.09230769 4.56923077 -1.09230769 4.56923077 -0.625 1.6875 C-0.41875 1.130625 -0.2125 0.57375 0 0 Z " fill="#D6D5D3" transform="translate(90,93)"/>
<path d="M0 0 C0.33 0.99 0.66 1.98 1 3 C-5.6 3 -12.2 3 -19 3 C-18.67 2.34 -18.34 1.68 -18 1 C-12.18248883 -0.3764647 -5.93568524 -0.09421723 0 0 Z " fill="#EDEAE9" transform="translate(104,15)"/>
<path d="M0 0 C0.66 0 1.32 0 2 0 C2 0.99 2 1.98 2 3 C0.54044651 4.29738088 -0.92691402 5.58952965 -2.46484375 6.79296875 C-4.10657835 8.08379825 -5.56436513 9.48460764 -7 11 C-5.51131293 6.39860359 -3.25370145 3.49772906 0 0 Z " fill="#D4D3D1" transform="translate(54,85)"/>
<path d="M0 0 C0.33 0.99 0.66 1.98 1 3 C0.01 3 -0.98 3 -2 3 C-3.70532323 4.94009522 -3.70532323 4.94009522 -5 7 C-5.99 6.67 -6.98 6.34 -8 6 C-3.375 0 -3.375 0 0 0 Z " fill="#E6E5E4" transform="translate(68,41)"/>
</svg>
